<svg id="Capa_1" data-name="Capa 1" xmlns="http://www.w3.org/2000/svg" viewBox="0 0 793.78 421.33"><defs><style>.cls-1,.cls-4,.cls-5{fill:none;}.cls-1,.cls-5{stroke:#1d1d1b;stroke-miterlimit:10;}.cls-1{stroke-width:9px;}.cls-2{fill:#1d1d1b;}.cls-3{fill:#fff;}.cls-4{stroke:#000100;stroke-linecap:round;stroke-linejoin:round;stroke-width:4px;}.cls-5{stroke-width:12px;}.cls-6{fill:#3a80c2;}</style></defs><ellipse class="cls-1" cx="473.02" cy="319.04" rx="37.55" ry="40.39"/><ellipse class="cls-1" cx="575.64" cy="321.12" rx="37.55" ry="40.39"/><path class="cls-2" d="M328.21,305.56H428.26c1.07-3.76,7.78-26.93,29.4-35.05a46.9,46.9,0,0,1,62.51,35.05H530a46.8,46.8,0,0,1,91.46-2.21c8-3.88,13.57-12.55,13.57-22.61a25.67,25.67,0,0,0-6.76-17.56,22.21,22.21,0,0,0-16.32-7.27H328.21"/><path class="cls-2" d="M150.27,185.66V301.13a6.5,6.5,0,0,0,6.26,6.72h33.82a47.2,47.2,0,0,1,93,0h24.29a6.49,6.49,0,0,0,6.24-6.72V90.79a6.5,6.5,0,0,0-6.24-6.73H213a14,14,0,0,0-12.24,7.6Z"/><path class="cls-3" d="M270.38,193.65A2.41,2.41,0,0,1,271,192a2.07,2.07,0,0,1,1.52-.68h22.53a2.24,2.24,0,0,1,2.15,2.31,2.35,2.35,0,0,1-.63,1.62,2.07,2.07,0,0,1-1.52.68H272.53A2.23,2.23,0,0,1,270.38,193.65Z"/><path class="cls-3" d="M170.64,182.06l44.58-81.56a8.69,8.69,0,0,1,5.51-4.3h72.64a6.8,6.8,0,0,1,6.66,6.93V178a6.78,6.78,0,0,1-6.63,6.92H172.2C170.8,184.91,170.64,182.06,170.64,182.06Z"/><path class="cls-3" d="M155.29,271.5a6.7,6.7,0,0,1,6.44-6.92,6.2,6.2,0,0,1,4.56,2,7.16,7.16,0,0,1,1.88,4.89V290a6.69,6.69,0,0,1-6.44,6.93,6.23,6.23,0,0,1-4.55-2,7.14,7.14,0,0,1-1.89-4.9Z"/><path class="cls-2" d="M220.93,64.51H309.6a0,0,0,0,1,0,0v2.33a15,15,0,0,1-15,15H220.93a0,0,0,0,1,0,0V64.51A0,0,0,0,1,220.93,64.51Z" transform="translate(530.53 146.33) rotate(-180)"/><rect class="cls-2" x="303.64" y="274.12" width="30.61" height="13.23" rx="6" transform="translate(637.9 561.46) rotate(-180)"/><ellipse class="cls-1" cx="237.19" cy="321.12" rx="37.55" ry="40.39"/><text/><line class="cls-4" x1="371.46" y1="250.62" x2="584.65" y2="250.62"/><rect class="cls-5" x="332.21" y="129.7" width="298.81" height="109.63" rx="24.13"/><path class="cls-6" d="M354.09,156.69a55.51,55.51,0,0,1,13.07-1.37c4.51,0,9.68.78,13.3,3.56,3.4,2.46,5.44,6.27,5.44,11.48a19.16,19.16,0,0,1-6.79,15.13c-4.09,3.44-9.93,5-16,5a35,35,0,0,1-4.38-.34l-3.45,19.43H344.77Zm6.23,24.08a18.14,18.14,0,0,0,4.14.41c6.44,0,10.67-4.45,10.67-9.84,0-5.17-3.48-6.86-7.62-6.86a20.24,20.24,0,0,0-4.36.37Z"/><path class="cls-6" d="M419.31,186.74h-17.8l-2.32,13h20l-1.74,9.82H386.73l9.5-53.92H425.9l-1.77,9.81H405.25L403.18,177h17.88Z"/><path class="cls-6" d="M427.37,197.12a22.26,22.26,0,0,0,11.84,3.41c4.14,0,7.93-2.07,7.93-6.27,0-3.08-2.19-5-6.77-7.65-5.32-3.05-10.39-7.29-10.39-14.27,0-10.9,8.85-17.5,19.75-17.5,6.11,0,9.7,1.41,11.87,2.65l-3.39,9.61a18.7,18.7,0,0,0-9.32-2.36c-5,0-7.63,2.68-7.64,5.62,0,3.14,3.08,5.09,7.32,7.66,6.1,3.42,9.94,7.78,9.94,14.25,0,12-9.24,18.17-20.4,18.17-7,0-12-2-14.34-3.85Z"/><path class="cls-6" d="M472.62,155.68H502l-1.78,9.81H481.65l-2.28,12.68h17.45l-1.75,9.72H477.65l-3.8,21.71H463.12Z"/><path class="cls-6" d="M510.64,155.68h10.71l-7.72,43.86H532.9l-1.77,10.06h-30Z"/><path class="cls-6" d="M570,186.74H552.14l-2.32,13h20l-1.73,9.82H537.36l9.5-53.92h29.68l-1.78,9.81H555.89L553.82,177H571.7Z"/><path class="cls-6" d="M592.63,165.74H579.42l1.83-10.06h37.3l-1.8,10.06H603.34l-7.68,43.86H585Z"/><rect class="cls-2" x="307.16" y="178.52" width="30.56" height="12.01" rx="6" transform="translate(644.87 369.04) rotate(-180)"/><rect class="cls-2" x="307.16" y="225.36" width="36.21" height="12.01" rx="6" transform="translate(650.53 462.72) rotate(180)"/><rect class="cls-2" x="590.23" y="233.68" width="15.31" height="30.9" rx="6" transform="translate(1195.77 498.26) rotate(180)"/><rect class="cls-2" x="348.6" y="238.17" width="15.31" height="24.9" rx="6" transform="translate(712.5 501.25) rotate(180)"/></svg>